<svg xmlns="http://www.w3.org/2000/svg" viewBox="0 0 690.7 304.5"><title>dan-has-plan</title><path d="M32.5,16.1,33,195.7,17.1,127.1C11.4,102.8,5.8,78.5,2.6,53.8,1.1,42.3.4,29.7,6.6,19.9,15.2,6.5,33.3,3.6,49.2,2.4c13.2-1,26.9-1.5,39,3.9a56.8,56.8,0,0,1,17.5,13c10.4,11,17.8,24.5,23.5,38.5,10.8,26.7,15.7,55.5,18.5,84.2,2.6,26.4,3.5,53.6-3.7,79.1-3,10.6-7.6,21.2-16.2,28.1s-20.2,9.3-31.3,9.9A128.3,128.3,0,0,1,34.9,247c-9.5-4.5-18.8-10.5-24.1-19.5" fill="#0c0c0c"/><path d="M181.7,156.9c-13.4,11.9-17.1,31.1-18.5,48.9-.5,5.8-.7,11.8,1.8,17s8.7,9.1,14.1,7.1,7.8-9.7,8.4-16.1a202.6,202.6,0,0,0-.3-42c4.3,21.4,8.7,43.1,19,62.3,3.4,6.3,9.4,13.1,16.3,11.4" fill="#0c0c0c"/><path d="M216.6,164.4c-.4,8.1-.8,16.2.7,24.2a34,34,0,0,1,26.3-37.6c2.5-.6,5.2-.8,7.4.3s3.4,3.1,4.5,5a64.4,64.4,0,0,1,6.8,17.2c.9,3.7,1.5,7.7,3.9,10.7" fill="#0c0c0c"/><path d="M314.1,16.1V203.1" fill="#0c0c0c"/><path d="M311.8,16.9V204c0,1.7,4.6-.1,4.6-1.7V15.2c0-1.7-4.6.1-4.6,1.7Z" fill="#0c0c0c"/><path d="M365.8,44.7V225.4c-24.5-7.7-42.6-28-58-48.5-1.6-2.2-3.3-4.4-3.9-7s0-5.7,2.2-7.3a10.3,10.3,0,0,1,4.1-1.4l43.3-8.2" fill="#0c0c0c"/><path d="M415.2,140c-9.7,4.1-19.5,8.2-28,14.4s-15.7,14.7-18.3,25a3.3,3.3,0,0,0,.1,2.6,2.8,2.8,0,0,0,1.7,1.1c3,.8,6.1-.5,8.8-2,16.7-9.3,26.7-27,35.3-44.1.9,4.6,1.9,9.3,4.5,13.2s7.3,6.8,11.9,5.7" fill="#0c0c0c"/><path d="M470.3,127.7l-29.2.3c-1.3,0-2.8.1-3.7,1s.1,4.8,2,6.6q11.1,10.7,23,20.4c6.1,4.9,12.5,9.9,15.8,17,2.5,5.4,2.9,11.6,2.7,17.6s-2.1,16.1-8.8,19.4-14.7-.4-21.3-4.2c-15.8-9.2-31.3-19-45.5-30.5" fill="#0c0c0c"/><path d="M525.1,29a2223.5,2223.5,0,0,0,9.7,274.1" fill="#0c0c0c"/><path d="M507.8,67.5a84.5,84.5,0,0,1,35.2-20c7.8-2.2,16.7-3.1,23.4,1.4,4.9,3.3,7.8,8.9,9.7,14.5,3.5,10.1,4.8,20.9,5.7,31.6,1.2,14.3,1.9,28.9-1.3,43s-10.4,27.7-22.3,35.8c-9.3,6.3-20.6,8.9-31.7,11" fill="#0c0c0c"/><path d="M603.9,73.9a830,830,0,0,0,16.1,210.6" fill="#0c0c0c"/><path d="M640,175.6c-1.9-1.4-4.4.6-5.7,2.4a50.7,50.7,0,0,0-9.2,22.9,1.9,1.9,0,0,0,.1,1.2c.5,1,2,.4,2.9-.2a37.3,37.3,0,0,0,12.7-18.7,22.1,22.1,0,0,0,11,8.4" fill="#0c0c0c"/><path d="M655.8,178.4a5.4,5.4,0,0,1,.2,4.1c.9-4.2,1.9-8.5,4.5-12s7.2-5.7,11.3-4.2,5.5,5,7.2,8.4q5.7,12,10.2,24.6" fill="#0c0c0c"/></svg>